<svg width="400" height="261" viewBox="0 0 400 261" fill="none" xmlns="http://www.w3.org/2000/svg">
<path d="M98.3699 36.4765C97.4329 36.2376 69.9282 15.0166 72.427 1.82467L56.4056 12.1688C56.4056 12.1688 74.7788 39.6183 96.3121 39.8755L98.3699 36.4765Z" fill="#F56132"/>
<path d="M96.3121 41.7128C74.0438 41.4556 55.6523 14.3552 54.8806 13.1977C54.7441 12.9946 54.6494 12.7664 54.6022 12.5263C54.5551 12.2862 54.5564 12.0391 54.606 11.7995C54.6556 11.5599 54.7526 11.3326 54.8913 11.131C55.0299 10.9294 55.2075 10.7575 55.4135 10.6254L71.4532 0.281338C71.7516 0.0939921 72.0975 -0.00362903 72.4498 0.000103147C72.802 0.00383533 73.1458 0.108768 73.4401 0.302393C73.7344 0.496018 73.9669 0.770167 74.1097 1.09219C74.2526 1.41421 74.2999 1.77052 74.2459 2.11865C72.1514 13.1426 95.816 32.8018 99.1232 34.731C99.5583 34.9253 99.9008 35.2811 100.079 35.7232C100.185 35.9871 100.229 36.2721 100.207 36.5559C100.185 36.8397 100.097 37.1144 99.95 37.3584L97.9106 40.7574C97.7534 41.0446 97.5224 41.2846 97.2414 41.4526C96.9603 41.6206 96.6395 41.7104 96.3121 41.7128ZM59.0146 12.7383C63.1118 18.2503 78.2513 37.1379 95.3016 38.0749L95.9263 37.0277C89.8264 32.563 72.0412 17.4602 70.5529 5.2972L59.0146 12.7383Z" fill="#093F68"/>
<path d="M95.2832 40.5002C95.2832 40.5002 63.1485 34.5289 51.1876 20.8409L47.513 40.5002C47.513 40.5002 80.7133 54.9231 95.2832 44.3585V40.5002Z" fill="#F56132"/>
<path d="M80.4744 50.0542C65.1512 50.0542 47.7702 42.705 46.7781 42.1905C46.395 42.0265 46.079 41.7371 45.882 41.3699C45.685 41.0026 45.6187 40.5793 45.694 40.1695L49.3687 20.5102C49.4339 20.1689 49.5945 19.8532 49.8319 19.5995C50.0693 19.3459 50.3737 19.1647 50.7099 19.0771C51.0389 18.993 51.3847 19.0017 51.7091 19.1022C52.0334 19.2027 52.3235 19.3912 52.5472 19.6466C63.8835 32.6916 95.2097 38.6445 95.5221 38.6996C95.9501 38.7779 96.3364 39.0055 96.6123 39.342C96.8882 39.6784 97.0357 40.1019 97.0286 40.5369V44.3953C97.0273 44.6868 96.9566 44.9738 96.8224 45.2325C96.6883 45.4913 96.4944 45.7145 96.257 45.8835C91.5547 48.874 86.0402 50.3312 80.4744 50.0542ZM49.5892 39.3794C55.7258 41.823 81.1726 51.1566 93.4459 43.3848V42.0068C87.2909 40.7207 64.3244 35.3557 52.4003 24.6258L49.5892 39.3794Z" fill="#093F68"/>
<path d="M24.0872 106.441H130.394C134.618 106.442 138.716 107.879 142.015 110.517C145.314 113.155 147.617 116.836 148.547 120.956L177.154 247.97H32.7042L5.93453 129.206C5.30669 126.478 5.30277 123.644 5.92305 120.915C6.54333 118.185 7.77181 115.631 9.51687 113.443C11.2619 111.254 13.4786 109.488 16.0014 108.276C18.5243 107.064 21.2882 106.437 24.0872 106.441Z" fill="#FFBC0E"/>
<path d="M177.154 249.881H32.7042C32.2795 249.891 31.8643 249.754 31.5293 249.493C31.1943 249.231 30.9602 248.862 30.8669 248.448L4.13396 129.61C3.44533 126.613 3.4422 123.499 4.12479 120.5C4.80738 117.502 6.15809 114.696 8.0762 112.292C9.99431 109.888 12.4303 107.948 15.2026 106.617C17.9749 105.286 21.0119 104.598 24.0872 104.604H130.394C135.043 104.596 139.555 106.181 143.176 109.097C146.797 112.013 149.309 116.082 150.292 120.626L178.899 247.639C178.96 247.906 178.96 248.183 178.9 248.45C178.839 248.717 178.72 248.968 178.55 249.183C178.383 249.394 178.171 249.567 177.93 249.687C177.689 249.808 177.424 249.874 177.154 249.881ZM34.1557 246.206H174.857L146.746 121.434C145.924 117.714 143.853 114.388 140.879 112.008C137.904 109.628 134.204 108.338 130.394 108.352H24.0872C21.5708 108.348 19.0858 108.911 16.8167 109.999C14.5475 111.087 12.5526 112.672 10.98 114.637C9.40732 116.601 8.29733 118.895 7.7324 121.347C7.16748 123.799 7.16212 126.347 7.71673 128.802L34.1557 246.206Z" fill="#093F68"/>
<path d="M63.1853 234.337C62.7631 234.348 62.3499 234.214 62.0153 233.956C61.6806 233.698 61.445 233.333 61.348 232.922C61.1459 232.077 40.7149 147.45 37.1689 132.605C32.1714 111.494 23.5176 108.279 23.5176 108.279C23.0583 108.124 22.6789 107.793 22.4621 107.36C22.2452 106.926 22.2086 106.424 22.3601 105.964C22.508 105.506 22.8295 105.125 23.2554 104.901C23.6814 104.678 24.1779 104.631 24.6384 104.769C25.0794 104.898 35.2214 108.315 40.8068 131.778C44.3528 146.605 64.6919 231.232 64.9859 232.095C65.097 232.566 65.0185 233.06 64.7675 233.473C64.5165 233.886 64.1131 234.183 63.6446 234.3L63.1853 234.337Z" fill="#093F68"/>
<path d="M234.515 235.439C233.174 226.418 234.754 219.179 225.733 220.52C216.179 221.935 204.365 213.392 194.829 208.945C187.921 205.73 173.81 156.563 171.771 150.739C164.072 128.691 94.4013 118.972 94.4013 118.972C80.6031 118.972 64.7286 134.626 58.5369 165.713L55.3583 237.938H169.786L168.206 219.106C168.206 219.106 187.167 245.012 217.263 245.49C224.063 245.591 230.861 245.124 237.583 244.093C246.605 242.715 235.856 244.461 234.515 235.439Z" fill="#68E1FD"/>
<path d="M219.045 247.345H217.207C194.094 246.978 177.558 232.353 170.503 224.709L171.605 237.81C171.627 238.063 171.595 238.317 171.513 238.558C171.431 238.798 171.299 239.019 171.128 239.206C170.954 239.393 170.744 239.542 170.51 239.643C170.276 239.744 170.023 239.796 169.768 239.794H55.3583C54.8711 239.794 54.4037 239.6 54.0592 239.256C53.7146 238.911 53.521 238.444 53.521 237.957L56.6996 165.732C56.6906 165.64 56.6906 165.548 56.6996 165.456C63.3323 132.127 80.4009 117.226 94.3645 117.226H94.6034C97.5064 117.612 165.487 127.295 173.479 150.206C173.81 151.162 174.472 153.275 175.317 156.159C185.385 188.569 192.183 205.767 195.527 207.347C197.952 208.486 200.451 209.827 203.097 211.26C210.446 215.247 218.824 219.749 225.384 218.775C226.568 218.491 227.798 218.456 228.996 218.671C230.194 218.886 231.335 219.347 232.347 220.024C234.974 222.101 235.323 225.904 235.709 230.295C235.856 231.875 236.003 233.529 236.26 235.237C236.449 236.588 237 237.863 237.853 238.928C238.707 239.992 239.833 240.805 241.111 241.282C241.864 241.631 243.114 242.237 242.948 243.707C242.783 245.177 241.754 245.379 238.171 245.93H237.638C231.485 246.869 225.269 247.342 219.045 247.345ZM168.206 217.268C168.493 217.27 168.775 217.34 169.031 217.471C169.286 217.601 169.507 217.79 169.676 218.022C169.86 218.279 188.49 243.193 217.281 243.744C223.639 243.8 229.992 243.352 236.279 242.403C234.272 240.695 232.964 238.307 232.604 235.697C232.329 233.859 232.182 232.022 232.035 230.534C231.722 226.988 231.447 223.919 230.05 222.817C228.79 222.118 227.306 221.94 225.916 222.321C218.126 223.479 209.197 218.646 201.333 214.402C198.742 213.006 196.28 211.683 193.984 210.599C189.335 208.431 182.96 192.961 171.807 157.151C170.944 154.34 170.301 152.264 169.97 151.327C167.03 142.875 153.085 134.92 129.659 128.324C118.002 125.101 106.16 122.586 94.1992 120.791C77.0938 120.901 64.6552 144.217 60.2823 165.915L57.214 236.082H167.71L166.295 219.253C166.271 218.859 166.374 218.467 166.589 218.136C166.804 217.806 167.12 217.553 167.49 217.415C167.716 217.319 167.96 217.269 168.206 217.268Z" fill="#093F68"/>
<path d="M150.862 140.946L106.877 235.439L108.604 124.263L150.862 140.946Z" fill="white"/>
<path d="M106.877 237.277H106.454C106.043 237.18 105.678 236.944 105.42 236.609C105.163 236.275 105.028 235.862 105.039 235.439L106.766 124.263C106.774 123.967 106.853 123.677 106.997 123.418C107.141 123.159 107.346 122.938 107.593 122.775C107.839 122.611 108.122 122.508 108.416 122.476C108.71 122.444 109.008 122.484 109.284 122.591L151.542 139.274C151.774 139.367 151.986 139.506 152.162 139.683C152.339 139.859 152.478 140.071 152.571 140.303C152.669 140.532 152.72 140.779 152.72 141.029C152.72 141.278 152.669 141.525 152.571 141.755L108.567 236.248C108.413 236.563 108.172 236.827 107.872 237.009C107.573 237.192 107.227 237.284 106.877 237.277ZM110.404 126.946L108.843 226.859L148.455 141.938L110.404 126.946Z" fill="#093F68"/>
<path d="M134.487 149.917L128.107 148.273C125.666 147.644 123.177 149.113 122.548 151.554L121.739 154.69C121.11 157.131 122.579 159.62 125.02 160.249L131.4 161.894C133.841 162.523 136.33 161.054 136.959 158.613L137.768 155.476C138.397 153.035 136.928 150.546 134.487 149.917Z" fill="#F56132"/>
<path d="M130.946 163.968C130.399 163.966 129.856 163.891 129.329 163.747L122.972 162.094C121.331 161.662 119.929 160.598 119.071 159.134C118.214 157.671 117.971 155.927 118.397 154.285L119.223 151.162C119.43 150.347 119.799 149.583 120.307 148.914C120.815 148.244 121.452 147.684 122.182 147.267C122.902 146.841 123.701 146.561 124.53 146.445C125.359 146.328 126.203 146.376 127.014 146.587L133.389 148.259C135.025 148.691 136.424 149.752 137.281 151.211C138.138 152.671 138.384 154.41 137.964 156.049L137.137 159.191C136.777 160.558 135.974 161.768 134.854 162.632C133.734 163.496 132.36 163.966 130.946 163.968ZM125.434 150.059C124.956 150.061 124.487 150.188 124.074 150.427C123.762 150.608 123.49 150.849 123.272 151.136C123.055 151.423 122.896 151.75 122.806 152.099L121.998 155.222C121.907 155.567 121.885 155.927 121.934 156.28C121.982 156.634 122.101 156.974 122.282 157.282C122.463 157.589 122.703 157.858 122.989 158.072C123.274 158.286 123.599 158.442 123.945 158.529L130.302 160.201C131.002 160.381 131.743 160.277 132.366 159.912C132.989 159.547 133.442 158.951 133.628 158.254L134.436 155.13C134.616 154.431 134.512 153.69 134.147 153.067C133.782 152.444 133.186 151.99 132.489 151.805L126.132 150.151C125.893 150.081 125.645 150.05 125.397 150.059H125.434Z" fill="#093F68"/>
<path d="M124.074 198.491L107.667 233.731L108.218 198.197L122.273 160.018L130.964 162.277L124.074 198.491Z" fill="#F56132"/>
<path d="M107.667 235.568C107.526 235.586 107.384 235.586 107.244 235.568C106.833 235.471 106.468 235.235 106.21 234.901C105.953 234.566 105.818 234.153 105.829 233.731L106.381 198.197C106.383 197.99 106.42 197.785 106.491 197.591L120.546 159.411C120.705 158.984 121.016 158.631 121.42 158.421C121.824 158.21 122.292 158.157 122.733 158.272L131.423 160.55C131.872 160.668 132.26 160.951 132.509 161.343C132.758 161.735 132.849 162.207 132.764 162.663L125.875 198.877C125.845 199.024 125.795 199.166 125.728 199.299L109.32 234.502C109.174 234.818 108.941 235.087 108.648 235.275C108.355 235.464 108.015 235.565 107.667 235.568ZM110.055 198.528L109.633 225.132L122.31 197.921L128.833 163.619L123.413 162.204L110.055 198.528Z" fill="#093F68"/>
<path d="M148.547 4.80113C154.426 4.19482 160.434 6.14237 165.946 8.47576C172.175 11.1031 178.33 14.2633 185.054 14.9431C191.779 15.6229 199.386 13.1058 202.38 7.0794C207.562 15.9536 207.066 27.0327 204.953 37.1012C204.417 40.0404 203.541 42.9075 202.344 45.6447C201.099 48.1237 199.642 50.4904 197.989 52.7183C195.619 56.1174 192.992 59.0571 192.257 63.1359C191.235 67.8514 189.803 72.4685 187.976 76.9342C184.301 87.021 179.781 96.8139 175.703 106.772L86.7397 90.2363C86.7397 90.2363 88.2279 68.1885 91.5902 50.0542C94.9525 31.9199 107.483 9.24743 128.704 18.2503C129.903 15.8494 131.631 13.7513 133.757 12.1137C137.289 8.82867 141.562 6.44599 146.214 5.16859C146.983 4.99855 147.762 4.87584 148.547 4.80113Z" fill="#725858"/>
<path d="M175.703 108.591H175.372L86.409 92.0553C85.9809 91.977 85.5946 91.7494 85.3187 91.4129C85.0428 91.0765 84.8953 90.653 84.9024 90.2179C84.9024 89.9975 86.4457 67.8027 89.7896 49.797C92.0128 37.8728 98.3148 23.0089 109.357 17.0928C112.182 15.5951 115.3 14.7336 118.493 14.5685C121.686 14.4035 124.876 14.9389 127.84 16.1374C129.151 14.1378 130.769 12.3582 132.636 10.8643C136.398 7.38681 140.941 4.86604 145.883 3.51501C146.695 3.33418 147.517 3.19923 148.345 3.1108C154.959 2.43099 161.61 4.78276 166.718 6.91404L169.952 8.31039C174.762 10.6748 179.904 12.2919 185.201 13.1058C190.713 13.6754 197.971 11.7646 200.708 6.25261C200.854 5.95435 201.078 5.70117 201.356 5.52001C201.635 5.33884 201.957 5.23645 202.288 5.22372C202.622 5.2125 202.951 5.29206 203.243 5.45389C203.534 5.61571 203.776 5.8537 203.942 6.14237C208.554 14.0796 209.454 24.3134 206.716 37.3767C206.15 40.4543 205.231 43.4566 203.979 46.3245C202.685 48.8991 201.173 51.3579 199.459 53.6737C199.036 54.28 198.595 54.8864 198.155 55.511C196.199 57.7926 194.786 60.4873 194.021 63.3931C193.022 68.0824 191.614 72.6749 189.813 77.1179L189.666 77.5037C187.186 84.1548 184.375 90.7691 181.655 97.163C180.222 100.562 178.771 103.961 177.374 107.397C177.246 107.74 177.019 108.037 176.721 108.25C176.423 108.462 176.068 108.581 175.703 108.591ZM88.6872 88.6746L174.582 104.659C175.794 101.701 177.062 98.7431 178.256 95.785C180.957 89.4279 183.768 82.9238 186.212 76.2727L186.341 75.9053C188.072 71.6601 189.425 67.2702 190.383 62.7868C191.234 59.3287 192.875 56.115 195.178 53.3981L196.427 51.6527C198.019 49.5091 199.426 47.235 200.635 44.8546C201.779 42.2138 202.624 39.4528 203.152 36.6234C205.394 25.9119 204.989 17.3684 202.178 10.6438C198.008 15.5862 190.842 17.2949 184.871 16.6886C179.151 15.8178 173.602 14.0572 168.427 11.4706L165.23 10.0926C160.581 8.12666 154.482 5.95863 148.694 6.54657C148.009 6.61948 147.328 6.72989 146.655 6.87729C142.284 8.07711 138.277 10.3364 134.988 13.4549C133.045 14.9158 131.461 16.801 130.358 18.9668C130.163 19.4123 129.799 19.7625 129.347 19.9406C128.9 20.1244 128.398 20.1244 127.951 19.9406C125.319 18.6465 122.419 17.9889 119.486 18.0208C116.553 18.0527 113.669 18.7732 111.066 20.1243C101.163 25.4158 95.3383 39.6734 93.3724 50.2563C90.6164 65.2856 89.1098 83.2545 88.6872 88.6746Z" fill="#093F68"/>
<path d="M125.128 128.495L141.567 131.515L139.818 141.04C139.477 142.892 138.415 144.534 136.864 145.604C135.313 146.673 133.401 147.083 131.548 146.743L129.063 146.286C127.21 145.946 125.569 144.883 124.499 143.333C123.43 141.782 123.02 139.87 123.36 138.017L125.1 128.546L125.128 128.495Z" fill="#FFC9B0"/>
<path d="M132.93 150.537C132.375 150.537 131.821 150.481 131.276 150.372L128.796 149.912C127.638 149.698 126.533 149.258 125.545 148.616C124.557 147.975 123.705 147.145 123.038 146.174C122.37 145.203 121.901 144.11 121.657 142.958C121.412 141.805 121.397 140.616 121.612 139.458L123.449 129.977C123.539 129.501 123.813 129.079 124.212 128.803C124.611 128.528 125.103 128.422 125.581 128.508L142.116 131.576C142.592 131.662 143.015 131.933 143.292 132.329C143.43 132.528 143.526 132.752 143.577 132.989C143.627 133.225 143.63 133.469 143.586 133.707L141.749 143.206C141.365 145.263 140.276 147.122 138.67 148.463C137.064 149.804 135.041 150.544 132.948 150.555L132.93 150.537ZM131.956 146.771C133.333 147.022 134.753 146.718 135.906 145.925C136.483 145.536 136.976 145.034 137.355 144.45C137.733 143.866 137.991 143.212 138.111 142.526L139.544 134.846L126.683 132.458L125.25 140.138C125.122 140.82 125.131 141.52 125.274 142.198C125.417 142.877 125.693 143.52 126.086 144.092C126.478 144.664 126.98 145.152 127.562 145.53C128.143 145.908 128.794 146.167 129.476 146.293L131.956 146.771Z" fill="#093F68"/>
<path d="M197.895 106.044C199.316 98.4127 194.937 91.196 188.113 89.9252C181.29 88.6544 174.606 93.8107 173.185 101.442C171.764 109.074 176.143 116.29 182.966 117.561C189.79 118.832 196.473 113.675 197.895 106.044Z" fill="#FFC9B0"/>
<path d="M185.054 119.56C184.235 119.56 183.417 119.487 182.611 119.339C180.705 118.964 178.901 118.189 177.317 117.064C175.734 115.94 174.407 114.492 173.424 112.817C171.358 109.279 170.634 105.117 171.383 101.089C172.131 97.0618 174.304 93.438 177.503 90.8794C179.016 89.645 180.779 88.7534 182.67 88.2661C184.56 87.7788 186.534 87.7073 188.456 88.0566C190.377 88.4059 192.199 89.1677 193.798 90.2894C195.396 91.4111 196.732 92.8661 197.714 94.554C199.82 98.0812 200.547 102.263 199.753 106.294C199.049 110.335 196.868 113.969 193.635 116.492C191.2 118.448 188.178 119.528 185.054 119.56ZM186.01 91.5592C183.721 91.5798 181.503 92.362 179.708 93.7823C177.23 95.7936 175.549 98.6214 174.967 101.759C174.384 104.897 174.938 108.14 176.529 110.906C177.238 112.151 178.209 113.227 179.376 114.058C180.543 114.888 181.877 115.455 183.285 115.717C184.693 115.98 186.141 115.932 187.529 115.577C188.917 115.222 190.21 114.568 191.32 113.662C193.832 111.679 195.526 108.84 196.078 105.688C196.705 102.538 196.149 99.2677 194.517 96.5016C193.797 95.2647 192.821 94.1956 191.655 93.3656C190.489 92.5355 189.16 91.9635 187.755 91.6878C187.179 91.5913 186.594 91.5483 186.01 91.5592Z" fill="#093F68"/>
<path d="M133.904 140.689C106.785 135.636 88.7424 97.6407 93.7031 70.871L99.7111 74.5456L103 55.6029C103 55.6029 138.662 52.9755 137.119 36.3295C137.119 36.3295 144.891 50.0175 159.167 52.6632C185.514 57.4954 197.126 52.4427 197.126 52.4427L188.123 100.727C183.217 127.479 161.041 145.742 133.904 140.689Z" fill="#FFC9B0"/>
<path d="M142.759 143.353C139.677 143.355 136.601 143.066 133.573 142.49C105.425 137.253 86.8132 97.9347 91.9025 70.6138C91.956 70.3224 92.0792 70.0482 92.2615 69.8146C92.4439 69.5811 92.68 69.3951 92.9498 69.2726C93.2222 69.1508 93.5201 69.0973 93.8178 69.1165C94.1155 69.1357 94.4041 69.2271 94.6585 69.3828L98.3332 71.6243L101.163 55.3457C101.231 54.9414 101.433 54.5716 101.736 54.2953C102.039 54.0189 102.426 53.8519 102.835 53.8207C103.073 53.8207 125.599 51.9834 133.058 43.2194C133.869 42.3353 134.486 41.2924 134.872 40.157C135.258 39.0215 135.404 37.8182 135.3 36.6235C135.269 36.2094 135.379 35.7972 135.613 35.4538C135.846 35.1105 136.189 34.8563 136.585 34.7327C136.982 34.6091 137.408 34.6234 137.795 34.7733C138.182 34.9231 138.507 35.1996 138.717 35.5578C138.717 35.6864 146.269 48.5476 159.553 50.9729C184.871 55.6213 196.299 50.9729 196.446 50.9729C196.747 50.8489 197.076 50.8074 197.399 50.8526C197.722 50.8978 198.027 51.0281 198.283 51.2301C198.555 51.4432 198.761 51.7287 198.878 52.0536C198.995 52.3786 199.018 52.73 198.945 53.0674L189.96 101.352C187.788 114.421 180.825 126.211 170.429 134.424C162.439 140.362 152.714 143.5 142.759 143.353ZM94.9892 73.9393C90.9655 104.016 112.921 134.92 134.161 138.888C140.05 140.076 146.124 140.002 151.983 138.672C157.841 137.342 163.352 134.786 168.151 131.172C177.8 123.53 184.263 112.574 186.285 100.433L194.719 55.1436C189.611 56.4113 178.036 58.0649 158.799 54.5189C148.749 52.6816 141.841 45.8468 138.258 41.3454C137.712 42.9023 136.876 44.3422 135.796 45.5895C128.447 54.2984 109.835 56.7972 104.562 57.3667L101.512 74.9131C101.461 75.2079 101.339 75.4858 101.157 75.7227C100.974 75.9596 100.736 76.1485 100.464 76.2727C100.19 76.3976 99.8883 76.4529 99.5871 76.4337C99.2859 76.4145 98.994 76.3213 98.7374 76.1625L94.9892 73.9393Z" fill="#093F68"/>
<path d="M149.341 85.6779C149.8 83.2139 148.167 80.8429 145.693 80.3822C143.219 79.9214 140.841 81.5454 140.382 84.0094C139.923 86.4733 141.557 88.8443 144.031 89.3051C146.505 89.7658 148.882 88.1419 149.341 85.6779Z" fill="#093F68"/>
<path d="M180.627 93.6354C183.143 93.6354 185.183 91.5953 185.183 89.0788C185.183 86.5623 183.143 84.5223 180.627 84.5223C178.11 84.5223 176.07 86.5623 176.07 89.0788C176.07 91.5953 178.11 93.6354 180.627 93.6354Z" fill="#093F68"/>
<path d="M154.794 103.906C152.227 103.793 149.692 103.284 147.279 102.399C146.85 102.21 146.51 101.864 146.327 101.431C146.145 100.999 146.136 100.514 146.3 100.074C146.465 99.6349 146.791 99.2751 147.212 99.0686C147.633 98.8621 148.117 98.8245 148.565 98.9636C150.546 99.6779 152.619 100.105 154.72 100.231C154.695 96.5786 154.075 92.9544 152.883 89.5014C152.812 89.2698 152.788 89.0265 152.812 88.7855C152.836 88.5445 152.907 88.3105 153.021 88.0971C153.135 87.8837 153.291 87.695 153.478 87.5418C153.666 87.3887 153.882 87.2741 154.114 87.2048C154.577 87.0668 155.076 87.1168 155.502 87.3437C155.928 87.5706 156.248 87.9564 156.392 88.4174C157.421 91.7797 159.608 99.8822 157.678 102.638C157.437 103.003 157.114 103.306 156.734 103.523C156.354 103.74 155.929 103.865 155.492 103.888L154.794 103.906Z" fill="#093F68"/>
<path d="M150.054 71.6611C149.541 71.6658 149.033 71.5592 148.565 71.3487L128.686 62.6031C127.821 62.1936 127.15 61.4629 126.815 60.5664C126.481 59.6698 126.509 58.6781 126.894 57.8022C127.28 56.9263 127.991 56.2352 128.878 55.876C129.765 55.5167 130.757 55.5176 131.644 55.8785L151.523 64.6241C152.294 64.9638 152.924 65.5577 153.309 66.3065C153.694 67.0554 153.81 67.9136 153.638 68.7378C153.466 69.5619 153.016 70.302 152.363 70.8341C151.711 71.3662 150.896 71.6582 150.054 71.6611Z" fill="#093F68"/>
<path d="M163.705 72.6716C162.73 72.7154 161.778 72.3704 161.058 71.7122C160.338 71.0541 159.909 70.1369 159.865 69.1623C159.821 68.1877 160.166 67.2357 160.824 66.5155C161.482 65.7954 162.4 65.3662 163.374 65.3223L184.999 63.338C185.974 63.2479 186.944 63.5486 187.697 64.1739C188.45 64.7993 188.924 65.6982 189.014 66.6728C189.104 67.6473 188.803 68.6178 188.178 69.3707C187.553 70.1235 186.654 70.5971 185.679 70.6873L164.054 72.6899L163.705 72.6716Z" fill="#093F68"/>
<path d="M102.798 76.1625C102.798 76.1625 92.5089 65.8 84.1858 75.1336C75.8628 84.4671 78.6739 103.557 99.1599 101.958" fill="#FFC9B0"/>
<path d="M96.7531 103.888C86.0231 103.888 81.5217 98.2286 79.7579 94.701C78.1946 91.3169 77.6522 87.5504 78.1972 83.8628C78.7422 80.1751 80.3509 76.7265 82.8262 73.9393C83.9222 72.5984 85.2891 71.5043 86.8374 70.7285C88.3857 69.9528 90.0805 69.513 91.8107 69.4379C98.425 69.1807 103.863 74.6743 104.102 74.9499C104.446 75.2958 104.638 75.7641 104.636 76.2516C104.634 76.7392 104.439 77.2061 104.093 77.5497C103.747 77.8932 103.279 78.0852 102.791 78.0835C102.304 78.0818 101.837 77.8864 101.493 77.5405C101.493 77.5405 96.8266 72.9472 91.9025 73.1493C90.6745 73.2138 89.4742 73.5388 88.3814 74.1026C87.2885 74.6665 86.3281 75.4563 85.5638 76.4197C83.5908 78.6675 82.3048 81.4346 81.8586 84.392C81.4124 87.3493 81.8247 90.3727 83.0467 93.1025C85.6189 98.2838 91.2962 100.819 99.013 100.195C99.2542 100.175 99.497 100.204 99.7273 100.278C99.9576 100.353 100.171 100.472 100.355 100.629C100.539 100.786 100.691 100.977 100.801 101.193C100.911 101.409 100.978 101.644 100.997 101.885C101.017 102.126 100.988 102.369 100.914 102.599C100.839 102.829 100.72 103.043 100.563 103.227C100.406 103.411 100.214 103.563 99.9988 103.673C99.7833 103.783 99.5482 103.85 99.3069 103.869C98.425 103.869 97.5615 103.888 96.7531 103.888Z" fill="#093F68"/>
<path d="M147.004 95.8034C146.741 95.8223 146.477 95.8223 146.214 95.8034L125.305 93.2863C124.457 93.1839 123.637 92.9154 122.893 92.4961C122.148 92.0769 121.494 91.5151 120.967 90.8429C120.439 90.1706 120.05 89.4011 119.82 88.5783C119.59 87.7554 119.525 86.8954 119.628 86.0473L121.189 73.186C121.216 72.9463 121.29 72.7141 121.407 72.5029C121.523 72.2917 121.681 72.1055 121.869 71.955C122.06 71.8074 122.279 71.6989 122.512 71.6359C122.746 71.5728 122.989 71.5564 123.229 71.5876L153.416 75.2622C153.896 75.3259 154.332 75.5768 154.629 75.9604C154.779 76.1503 154.891 76.3683 154.957 76.6016C155.024 76.835 155.043 77.0791 155.014 77.32L153.453 90.1812C153.236 91.7382 152.464 93.1644 151.279 94.1974C150.094 95.2304 148.576 95.8007 147.004 95.8034ZM124.57 75.3173L123.229 86.4515C123.146 87.1962 123.36 87.9436 123.824 88.5317C124.288 89.1198 124.966 89.5012 125.709 89.5933L146.618 92.1104C146.986 92.1566 147.36 92.1294 147.717 92.0304C148.075 91.9315 148.409 91.7627 148.702 91.5338C148.994 91.3049 149.237 91.0205 149.419 90.6969C149.601 90.3733 149.716 90.0169 149.76 89.6484L151.101 78.5143L124.57 75.3173Z" fill="#093F68"/>
<path d="M184.485 100.323H183.695L162.805 97.8061C161.091 97.59 159.532 96.7067 158.465 95.3479C157.399 93.9892 156.911 92.2646 157.109 90.5487L158.671 77.6875C158.7 77.4463 158.777 77.2133 158.896 77.002C159.016 76.7907 159.177 76.6053 159.369 76.4565C159.748 76.1564 160.23 76.0178 160.71 76.0706L190.897 79.7453C191.379 79.805 191.818 80.0531 192.117 80.4352C192.417 80.8173 192.553 81.3025 192.496 81.7847L190.934 94.7378C190.716 96.2912 189.943 97.7131 188.757 98.7401C187.571 99.7671 186.054 100.329 184.485 100.323ZM184.136 96.6486C184.506 96.6947 184.882 96.6671 185.242 96.5672C185.602 96.4673 185.939 96.2971 186.232 96.0665C186.526 95.836 186.771 95.5495 186.954 95.2237C187.137 94.8979 187.253 94.5391 187.296 94.1682L188.637 83.1443L162.106 79.9474L160.765 90.9713C160.719 91.3405 160.746 91.7152 160.845 92.074C160.943 92.4327 161.112 92.7685 161.341 93.0621C161.569 93.3556 161.854 93.6011 162.177 93.7846C162.501 93.9681 162.858 94.086 163.227 94.1314L184.136 96.6486Z" fill="#093F68"/>
<path d="M122.402 80.076H122.182L101.732 77.614C101.245 77.5555 100.801 77.3058 100.498 76.9199C100.194 76.534 100.057 76.0435 100.115 75.5562C100.174 75.0689 100.424 74.6248 100.809 74.3216C101.195 74.0184 101.686 73.8809 102.173 73.9393L122.622 76.4013C122.863 76.4287 123.095 76.5032 123.307 76.6206C123.518 76.738 123.704 76.8959 123.854 77.0854C124.004 77.2749 124.116 77.4921 124.182 77.7247C124.248 77.9573 124.267 78.2006 124.239 78.4408C124.189 78.8922 123.974 79.3092 123.635 79.6112C123.295 79.9131 122.856 80.0787 122.402 80.076Z" fill="#093F68"/>
<path d="M149.135 120.038C129.623 120.038 120.418 99.8271 120.307 99.625C120.21 99.4042 120.156 99.1664 120.151 98.925C120.145 98.6837 120.187 98.4435 120.274 98.2183C120.361 97.9931 120.491 97.7873 120.658 97.6125C120.824 97.4377 121.024 97.2975 121.244 97.1998C121.465 97.102 121.703 97.0487 121.944 97.043C122.186 97.0372 122.426 97.079 122.651 97.166C122.876 97.253 123.082 97.3835 123.257 97.5501C123.432 97.7167 123.572 97.916 123.67 98.1368C125.769 102.386 128.627 106.215 132.103 109.436C135.433 112.64 139.59 114.852 144.108 115.826C148.625 116.799 153.324 116.495 157.678 114.948C158.141 114.804 158.643 114.849 159.073 115.072C159.503 115.296 159.827 115.681 159.975 116.142C160.049 116.374 160.076 116.618 160.055 116.86C160.034 117.102 159.965 117.338 159.852 117.553C159.739 117.769 159.585 117.959 159.398 118.115C159.211 118.27 158.995 118.386 158.762 118.457C155.651 119.465 152.405 119.997 149.135 120.038Z" fill="#093F68"/>
<path d="M159.681 86.3596H159.479L152.13 85.7165C151.888 85.6948 151.654 85.6258 151.439 85.5134C151.225 85.401 151.034 85.2474 150.879 85.0615C150.724 84.8755 150.607 84.6608 150.534 84.4295C150.462 84.1983 150.436 83.9551 150.458 83.7138C150.48 83.4726 150.549 83.2379 150.661 83.0233C150.773 82.8087 150.927 82.6184 151.113 82.4631C151.299 82.3079 151.514 82.1908 151.745 82.1185C151.976 82.0462 152.219 82.0202 152.46 82.0419L159.81 82.685C160.297 82.7069 160.756 82.9215 161.085 83.2816C161.414 83.6416 161.586 84.1177 161.564 84.6049C161.542 85.0922 161.328 85.5509 160.968 85.8799C160.608 86.209 160.132 86.3815 159.644 86.3596H159.681Z" fill="#093F68"/>
<path d="M168.206 220.943C167.749 220.945 167.308 220.777 166.968 220.471C166.628 220.166 166.415 219.744 166.369 219.289L162.584 181.367C162.56 181.126 162.584 180.882 162.654 180.65C162.724 180.418 162.839 180.202 162.992 180.014C163.146 179.827 163.335 179.671 163.549 179.556C163.762 179.442 163.996 179.37 164.238 179.346C164.479 179.322 164.723 179.346 164.955 179.416C165.187 179.486 165.403 179.601 165.591 179.754C165.778 179.908 165.934 180.097 166.049 180.311C166.163 180.524 166.235 180.758 166.259 181L170.044 218.922C170.069 219.162 170.047 219.405 169.979 219.636C169.91 219.868 169.797 220.084 169.645 220.271C169.493 220.459 169.306 220.615 169.093 220.73C168.881 220.845 168.648 220.918 168.408 220.943H168.206Z" fill="#093F68"/>
<path d="M255.222 230.46H158.23V240.4H255.222V230.46Z" fill="#C1EAEF"/>
<path d="M255.222 242.256H158.23C157.742 242.256 157.275 242.062 156.93 241.718C156.586 241.373 156.392 240.906 156.392 240.419V230.46C156.392 229.973 156.586 229.506 156.93 229.161C157.275 228.817 157.742 228.623 158.23 228.623H255.222C255.709 228.623 256.176 228.817 256.521 229.161C256.865 229.506 257.059 229.973 257.059 230.46V240.419C257.059 240.906 256.865 241.373 256.521 241.718C256.176 242.062 255.709 242.256 255.222 242.256ZM160.067 238.581H253.384V232.298H160.067V238.581Z" fill="#093F68"/>
<path d="M194.792 230.46H158.23V240.4H194.792V230.46Z" fill="#DFEAEF"/>
<path d="M194.792 242.256H158.23C157.742 242.256 157.275 242.062 156.93 241.718C156.586 241.373 156.392 240.906 156.392 240.419V230.46C156.392 229.973 156.586 229.506 156.93 229.161C157.275 228.817 157.742 228.623 158.23 228.623H194.792C195.28 228.623 195.747 228.817 196.091 229.161C196.436 229.506 196.63 229.973 196.63 230.46V240.419C196.63 240.906 196.436 241.373 196.091 241.718C195.747 242.062 195.28 242.256 194.792 242.256ZM160.067 238.581H192.955V232.298H160.067V238.581Z" fill="#093F68"/>
<path d="M126.407 220.539L129.568 219.216C136.568 216.276 153.177 209.478 158.101 208.651C164.403 207.604 176.29 209.35 177.687 208.651C179.083 207.953 189.574 219.675 189.923 223.442C190.272 227.208 177.062 231.379 173.479 228.954C170.445 226.949 167.304 225.109 164.072 223.442C164.072 223.442 156.006 241.153 131.883 239.243" fill="#FFC9B0"/>
<path d="M135.594 241.227C134.4 241.227 133.169 241.227 131.919 241.062C131.438 241.019 130.993 240.79 130.68 240.422C130.367 240.054 130.212 239.577 130.247 239.096C130.285 238.611 130.513 238.161 130.881 237.845C131.25 237.528 131.729 237.37 132.213 237.405C154.794 239.243 162.492 222.854 162.584 222.707C162.687 222.481 162.834 222.278 163.017 222.111C163.2 221.944 163.416 221.815 163.65 221.733C163.876 221.637 164.12 221.588 164.366 221.588C164.612 221.588 164.856 221.637 165.083 221.733C168.397 223.432 171.617 225.308 174.729 227.355C175.794 228.09 179.8 227.851 183.915 226.308C187.02 225.114 188.251 223.864 188.343 223.478C188.123 221.108 180.516 211.977 177.999 210.47C175.867 210.672 173.72 210.672 171.587 210.47C167.31 210.059 163.003 210.059 158.726 210.47C155.437 211.003 144.909 214.917 130.578 220.906L127.436 222.229C127.212 222.334 126.97 222.393 126.723 222.403C126.476 222.412 126.229 222.371 125.998 222.283C125.767 222.194 125.556 222.06 125.379 221.889C125.201 221.717 125.059 221.511 124.963 221.284C124.866 221.056 124.816 220.811 124.817 220.564C124.817 220.317 124.867 220.072 124.965 219.845C125.062 219.617 125.204 219.412 125.382 219.241C125.561 219.069 125.772 218.936 126.003 218.848L129.163 217.507C137.854 213.833 153.177 207.659 158.119 206.832C162.684 206.39 167.28 206.39 171.844 206.832C173.676 207 175.517 207.055 177.356 206.998C177.737 206.861 178.144 206.815 178.546 206.863C178.948 206.91 179.333 207.051 179.671 207.273C182.739 208.982 191.706 219.142 192.091 223.331C192.275 225.169 191.026 226.896 188.417 228.421C184.173 230.883 176.199 232.867 172.8 230.479C170.33 228.844 167.779 227.335 165.156 225.959C162.161 230.203 153.526 241.209 135.594 241.227Z" fill="#093F68"/>
<path d="M91.186 163.582C90.9471 163.913 67.8337 204.279 67.8337 204.279C79.9967 207.475 116.302 213.741 140.114 213.245V240.804C139.342 240.804 114.869 244.975 94.7504 244.975H93.1519C59.8414 244.81 41.0456 239.794 32.2633 228.696C29.6297 225.378 27.8919 221.44 27.2163 217.258C26.5408 213.075 26.95 208.79 28.4049 204.811C40.3107 170.123 74.4297 130.051 75.5321 128.452" fill="#68E1FD"/>
<path d="M94.7504 246.849H93.1519C59.2167 246.684 39.9984 241.447 30.8118 229.872C27.9942 226.315 26.1335 222.095 25.4067 217.616C24.6799 213.136 25.1112 208.545 26.6595 204.279C33.7515 183.645 49.7361 157.574 72.868 128.949L74.0255 127.497C74.3035 127.102 74.7261 126.832 75.2018 126.746C75.6775 126.66 76.1679 126.765 76.5667 127.038C76.9655 127.311 77.2406 127.73 77.3324 128.205C77.4242 128.679 77.3253 129.171 77.057 129.573C76.9284 129.757 76.4691 130.327 75.7342 131.264C52.8596 159.577 37.1505 185.244 30.1504 205.491C28.8134 209.164 28.4374 213.117 29.058 216.976C29.6786 220.835 31.2753 224.471 33.6964 227.539C42.1113 238.159 60.4477 242.954 93.1703 243.119H94.7504C109.334 242.855 123.88 241.547 138.276 239.206V215.119C114.851 215.266 80.0151 209.368 67.3744 206.061C67.1011 205.99 66.8479 205.857 66.6344 205.672C66.4209 205.487 66.2529 205.255 66.1434 204.995C66.0369 204.735 65.9915 204.454 66.0106 204.174C66.0297 203.894 66.1129 203.621 66.2536 203.378C81.6136 176.535 89.4957 162.81 89.661 162.553C89.9328 162.155 90.3501 161.88 90.823 161.786C91.2959 161.693 91.7865 161.79 92.1891 162.055C92.5916 162.32 92.8738 162.733 92.9749 163.204C93.076 163.675 92.9878 164.167 92.7293 164.574C92.1598 165.511 78.6922 189.047 70.6815 203.158C85.1045 206.594 118.36 211.94 140.114 211.481C140.359 211.477 140.602 211.522 140.829 211.614C141.056 211.705 141.263 211.841 141.437 212.014C141.61 212.184 141.748 212.387 141.843 212.611C141.938 212.835 141.987 213.075 141.988 213.318V240.878C141.99 241.335 141.822 241.776 141.516 242.116C141.21 242.456 140.789 242.669 140.334 242.715L139.471 242.844C124.68 245.257 109.734 246.596 94.7504 246.849Z" fill="#093F68"/>
<path d="M388.886 240.419H10.932C5.90917 240.419 1.83732 244.49 1.83732 249.513V249.734C1.83732 254.757 5.90917 258.828 10.932 258.828H388.886C393.909 258.828 397.981 254.757 397.981 249.734V249.513C397.981 244.49 393.909 240.419 388.886 240.419Z" fill="#093F68"/>
<path d="M388.886 260.666H10.9137C8.02808 260.637 5.2688 259.478 3.22828 257.437C1.18777 255.397 0.0287144 252.638 0 249.752V249.513C0.0287144 246.628 1.18777 243.868 3.22828 241.828C5.2688 239.787 8.02808 238.628 10.9137 238.6H388.886C391.772 238.628 394.531 239.787 396.572 241.828C398.612 243.868 399.771 246.628 399.8 249.513V249.752C399.771 252.638 398.612 255.397 396.572 257.437C394.531 259.478 391.772 260.637 388.886 260.666ZM10.9137 242.293C9.00262 242.321 7.17784 243.093 5.82638 244.444C4.47492 245.796 3.70309 247.621 3.67463 249.532V249.752C3.69835 251.666 4.46808 253.496 5.82004 254.851C7.172 256.207 8.99948 256.981 10.9137 257.009H388.886C390.8 256.981 392.628 256.207 393.98 254.851C395.332 253.496 396.102 251.666 396.125 249.752V249.513C396.097 247.602 395.325 245.777 393.974 244.426C392.622 243.075 390.797 242.303 388.886 242.274L10.9137 242.293Z" fill="#093F68"/>
<path d="M363.972 93.6354H220.055C216.372 93.6354 213.386 96.6214 213.386 100.305V195.239C213.386 198.922 216.372 201.908 220.055 201.908H363.972C367.656 201.908 370.642 198.922 370.642 195.239V100.305C370.642 96.6214 367.656 93.6354 363.972 93.6354Z" fill="#093F68"/>
<path d="M363.972 203.819H220.11C217.856 203.814 215.695 202.917 214.101 201.322C212.506 199.728 211.609 197.567 211.604 195.312V100.305C211.599 99.1837 211.815 98.0727 212.24 97.0354C212.665 95.998 213.291 95.0546 214.081 94.2594C214.871 93.4641 215.811 92.8324 216.845 92.4006C217.88 91.9688 218.989 91.7453 220.11 91.7429H363.972C366.227 91.7478 368.388 92.6456 369.982 94.2399C371.576 95.8341 372.474 97.9951 372.479 100.25V195.184C372.494 196.311 372.285 197.43 371.864 198.476C371.443 199.522 370.819 200.474 370.028 201.277C369.237 202.08 368.294 202.718 367.255 203.155C366.215 203.591 365.1 203.817 363.972 203.819ZM220.11 95.4176C218.829 95.4176 217.6 95.9267 216.694 96.8329C215.787 97.7391 215.278 98.9681 215.278 100.25V195.184C215.261 195.829 215.373 196.471 215.609 197.073C215.844 197.674 216.197 198.222 216.647 198.684C217.098 199.147 217.636 199.514 218.231 199.765C218.826 200.016 219.465 200.145 220.11 200.145H363.972C365.254 200.145 366.483 199.635 367.389 198.729C368.295 197.823 368.804 196.594 368.804 195.312V100.305C368.812 99.6656 368.692 99.0314 368.453 98.4387C368.213 97.8461 367.858 97.3068 367.409 96.8523C366.959 96.3977 366.424 96.0369 365.834 95.7906C365.244 95.5443 364.612 95.4175 363.972 95.4176H220.11Z" fill="#093F68"/>
<path d="M373.82 93.6354H229.903C226.22 93.6354 223.234 96.6214 223.234 100.305V195.239C223.234 198.922 226.22 201.908 229.903 201.908H373.82C377.504 201.908 380.49 198.922 380.49 195.239V100.305C380.49 96.6214 377.504 93.6354 373.82 93.6354Z" fill="white"/>
<path d="M373.82 203.819H229.922C227.664 203.819 225.498 202.924 223.9 201.329C222.302 199.734 221.401 197.57 221.397 195.312V100.305C221.401 98.047 222.302 95.8833 223.9 94.2885C225.498 92.6937 227.664 91.798 229.922 91.798H373.82C376.078 91.798 378.244 92.6937 379.842 94.2885C381.44 95.8833 382.341 98.047 382.345 100.305V195.239C382.353 196.363 382.138 197.478 381.712 198.518C381.287 199.559 380.66 200.505 379.868 201.303C379.076 202.1 378.133 202.733 377.095 203.165C376.058 203.597 374.944 203.819 373.82 203.819ZM229.922 95.4176C228.638 95.4175 227.407 95.9261 226.498 96.8317C225.589 97.7374 225.076 98.9665 225.071 100.25V195.184C225.076 196.467 225.589 197.696 226.498 198.602C227.407 199.507 228.638 200.016 229.922 200.016H373.82C375.104 200.016 376.335 199.507 377.244 198.602C378.153 197.696 378.666 196.467 378.671 195.184V100.305C378.666 99.0216 378.153 97.7925 377.244 96.8869C376.335 95.9812 375.104 95.4727 373.82 95.4727L229.922 95.4176Z" fill="#093F68"/>
<path d="M277.857 224.875H325.903C328.953 224.875 331.879 226.087 334.036 228.244C336.193 230.401 337.405 233.326 337.405 236.376V240.419H266.356V236.376C266.356 233.326 267.567 230.401 269.724 228.244C271.881 226.087 274.807 224.875 277.857 224.875Z" fill="#68E1FD"/>
<path d="M337.386 242.256H266.356C265.868 242.256 265.401 242.062 265.057 241.718C264.712 241.373 264.518 240.906 264.518 240.419V236.376C264.523 232.84 265.93 229.45 268.431 226.95C270.931 224.449 274.321 223.042 277.857 223.038H325.885C329.421 223.042 332.811 224.449 335.311 226.95C337.812 229.45 339.219 232.84 339.224 236.376V240.419C339.224 240.906 339.03 241.373 338.686 241.718C338.341 242.062 337.874 242.256 337.386 242.256ZM268.193 238.581H335.549V236.376C335.544 233.815 334.524 231.359 332.713 229.548C330.902 227.737 328.446 226.717 325.885 226.712H277.857C275.296 226.717 272.84 227.737 271.029 229.548C269.218 231.359 268.198 233.815 268.193 236.376V238.581Z" fill="#093F68"/>
<path d="M301.871 147.763C302.923 147.763 303.965 147.97 304.937 148.372C305.908 148.775 306.792 149.365 307.535 150.109C308.279 150.853 308.869 151.736 309.272 152.708C309.674 153.68 309.882 154.721 309.882 155.773V224.856H293.842V155.773C293.842 154.721 294.049 153.68 294.452 152.708C294.854 151.736 295.444 150.853 296.188 150.109C296.932 149.365 297.815 148.775 298.787 148.372C299.759 147.97 300.801 147.763 301.853 147.763H301.871Z" fill="#68E1FD"/>
<path d="M309.882 226.712H293.86C293.373 226.712 292.906 226.519 292.561 226.174C292.217 225.829 292.023 225.362 292.023 224.875V155.792C292.023 153.18 293.061 150.675 294.907 148.828C296.754 146.981 299.259 145.944 301.871 145.944C304.483 145.944 306.988 146.981 308.835 148.828C310.681 150.675 311.719 153.18 311.719 155.792V224.875C311.719 225.362 311.525 225.829 311.181 226.174C310.836 226.519 310.369 226.712 309.882 226.712ZM295.698 223.038H308.044V155.792C308.044 154.154 307.394 152.584 306.236 151.427C305.079 150.269 303.508 149.618 301.871 149.618C300.234 149.618 298.663 150.269 297.506 151.427C296.348 152.584 295.698 154.154 295.698 155.792V223.038Z" fill="#093F68"/>
<path d="M221.231 230.46C221.231 230.46 219.853 222.009 227.956 219.106C236.058 216.203 240.725 212.602 244.492 217.268C248.258 221.935 248.956 230.479 248.956 230.479L221.231 230.46Z" fill="#FFC9B0"/>
<path d="M248.975 232.298H221.231C220.791 232.303 220.363 232.151 220.026 231.867C219.689 231.584 219.464 231.189 219.394 230.754C218.927 227.949 219.465 225.069 220.914 222.622C222.363 220.175 224.629 218.318 227.313 217.379C229.003 216.772 230.51 216.148 231.98 215.541C237.381 213.3 242.066 211.371 245.906 216.092C250.004 221.127 250.757 229.946 250.775 230.313C250.796 230.567 250.763 230.821 250.68 231.062C250.597 231.302 250.465 231.522 250.292 231.709C250.119 231.895 249.91 232.044 249.677 232.145C249.444 232.246 249.192 232.298 248.938 232.298H248.975ZM222.995 228.623H246.88C246.436 224.965 245.133 221.465 243.077 218.408C241.056 215.946 239.016 216.57 233.394 218.94C231.961 219.528 230.344 220.208 228.562 220.778C226.919 221.322 225.493 222.376 224.492 223.787C223.49 225.199 222.966 226.893 222.995 228.623Z" fill="#093F68"/>
<path d="M198.191 64.1281L89.8448 46.545L92.8763 27.9146L202.344 45.6263L198.191 64.1281Z" fill="#F56132"/>
<path d="M198.191 66.0205H197.897L89.4957 48.4374C89.2563 48.4052 89.0263 48.3232 88.8206 48.1966C88.6149 48.07 88.438 47.9017 88.3014 47.7025C88.0162 47.3106 87.8973 46.8219 87.9707 46.3428L91.0207 27.7125C91.0975 27.2331 91.3609 26.8037 91.7534 26.5179C92.1458 26.2322 92.6354 26.1134 93.1152 26.1875L202.582 43.8992C202.831 43.9396 203.068 44.0306 203.28 44.1665C203.492 44.3024 203.673 44.4803 203.813 44.6893C203.955 44.8966 204.052 45.1308 204.1 45.3773C204.147 45.6237 204.143 45.8773 204.089 46.1224L199.9 64.5139C199.826 64.9206 199.617 65.2906 199.307 65.564C198.997 65.8374 198.604 65.9982 198.191 66.0205ZM91.9577 45.0935L196.777 62.107L200.12 47.188L94.4013 30.101L91.9577 45.0935Z" fill="#093F68"/>
</svg>
