<svg width="150" height="33" viewBox="0 0 150 33" fill="none" xmlns="http://www.w3.org/2000/svg">
<g clip-path="url(#clip0_1_46)">
<path d="M11.5459 1.05404H17.6L28.8865 31.7567H22.7459L19.8919 24.1027H9.16757L6.35676 31.7567H0.216217L11.5459 1.05404ZM18.8108 19.9081L14.573 7.23783L10.1622 19.9081H18.8108ZM31.522 0.189178H37.3166V24.4919C37.3166 25.5297 37.4895 26.236 37.8355 26.6108C38.1814 26.9567 38.6571 27.1297 39.2625 27.1297C39.7238 27.1297 40.1995 27.0721 40.6895 26.9567C41.1796 26.8414 41.612 26.6973 41.9868 26.5243L42.7652 30.9351C41.9868 31.3099 41.0787 31.5982 40.0409 31.8C39.003 32.0018 38.0661 32.1027 37.2301 32.1027C35.4139 32.1027 34.0012 31.627 32.9922 30.6757C32.012 29.6955 31.522 28.3117 31.522 26.5243V0.189178ZM55.798 32.1892C53.9818 32.1892 52.3385 31.8865 50.8682 31.2811C49.398 30.6468 48.1439 29.7964 47.1061 28.7297C46.0682 27.6342 45.261 26.3946 44.6845 25.0108C44.1367 23.5982 43.8628 22.1135 43.8628 20.5567C43.8628 18.3946 44.3385 16.4198 45.2899 14.6324C46.2701 12.8451 47.6539 11.418 49.4412 10.3513C51.2574 9.25587 53.3907 8.7081 55.8412 8.7081C58.3205 8.7081 60.4394 9.25587 62.198 10.3513C63.9566 11.418 65.2971 12.8451 66.2196 14.6324C67.1709 16.391 67.6466 18.2937 67.6466 20.3405C67.6466 20.6865 67.6324 21.0468 67.6034 21.4216C67.5743 21.7676 67.5457 22.0559 67.5169 22.2865H50.0034C50.1187 23.4397 50.4502 24.4486 50.998 25.3135C51.5745 26.1784 52.2953 26.8414 53.1601 27.3027C54.0539 27.7351 55.0052 27.9513 56.0142 27.9513C57.1674 27.9513 58.2484 27.6775 59.2574 27.1297C60.2953 26.5532 61.0016 25.8036 61.3764 24.8811L66.3493 26.2649C65.8016 27.418 65.0088 28.4414 63.971 29.3351C62.962 30.2288 61.7655 30.9351 60.3818 31.454C58.998 31.9441 57.4701 32.1892 55.798 32.1892ZM49.8737 18.6108H61.7223C61.607 17.4576 61.2755 16.463 60.7277 15.627C60.2088 14.7622 59.5169 14.0991 58.652 13.6378C57.7872 13.1478 56.8214 12.9027 55.7547 12.9027C54.7169 12.9027 53.7655 13.1478 52.9007 13.6378C52.0647 14.0991 51.3728 14.7622 50.825 15.627C50.3061 16.463 49.989 17.4576 49.8737 18.6108ZM74.0507 9.09729L78.8074 16.1892L79.1541 16.9676L79.5865 16.1892L84.3 9.09729H90.3973L82.527 20.3838L90.5264 31.7567H84.4297L79.5432 24.7081L79.1541 23.973L78.8074 24.7081L73.9649 31.7567H67.8676L75.8676 20.5135L67.9973 9.09729H74.0507Z" fill="black"/>
<path d="M92.0081 16.1892C92.0081 14.3153 92.3392 12.4847 93.0027 10.6973C93.6946 8.88107 94.6892 7.23783 95.9865 5.76756C97.2838 4.26846 98.8689 3.08648 100.743 2.22161C102.617 1.32792 104.75 0.881073 107.143 0.881073C109.968 0.881073 112.404 1.50089 114.451 2.74053C116.527 3.98017 118.069 5.59459 119.078 7.58378L114.494 10.7405C113.976 9.58736 113.298 8.67925 112.462 8.01621C111.626 7.32432 110.732 6.84864 109.781 6.58918C108.83 6.30089 107.893 6.15675 106.97 6.15675C105.471 6.15675 104.159 6.45945 103.035 7.06486C101.939 7.67026 101.017 8.46303 100.268 9.44324C99.5176 10.4234 98.9554 11.5189 98.5811 12.7297C98.2351 13.9405 98.0622 15.1513 98.0622 16.3622C98.0622 17.7171 98.2784 19.0288 98.7108 20.2973C99.1433 21.537 99.7487 22.6468 100.527 23.627C101.334 24.5784 102.285 25.3424 103.38 25.9189C104.505 26.4667 105.73 26.7405 107.057 26.7405C108.008 26.7405 108.974 26.582 109.954 26.2649C110.934 25.9478 111.842 25.4432 112.678 24.7513C113.514 24.0595 114.163 23.1657 114.624 22.0703L119.511 24.8811C118.905 26.409 117.911 27.7063 116.527 28.773C115.172 29.8397 113.644 30.6468 111.943 31.1946C110.242 31.7424 108.555 32.0162 106.884 32.0162C104.693 32.0162 102.689 31.5694 100.873 30.6757C99.0568 29.7532 97.4851 28.5424 96.1595 27.0432C94.8622 25.5153 93.8385 23.8144 93.0892 21.9405C92.3683 20.0378 92.0081 18.1207 92.0081 16.1892ZM135.889 31.973C133.9 31.973 132.011 31.5694 130.224 30.7622C128.466 29.9549 126.909 28.8451 125.554 27.4324C124.228 25.991 123.19 24.3189 122.441 22.4162C121.691 20.5135 121.316 18.4522 121.316 16.2324C121.316 14.1279 121.691 12.1532 122.441 10.3081C123.19 8.43425 124.243 6.79101 125.597 5.37837C126.952 3.96576 128.538 2.85584 130.354 2.04864C132.17 1.24143 134.145 0.83783 136.278 0.83783C139.161 0.83783 141.626 1.45765 143.673 2.69729C145.749 3.9081 147.305 5.52251 148.343 7.54053L143.889 10.827C143.111 9.29911 142.016 8.13155 140.603 7.32432C139.219 6.51711 137.705 6.11351 136.062 6.11351C134.765 6.11351 133.583 6.38738 132.516 6.93513C131.449 7.4829 130.527 8.23242 129.749 9.18378C128.97 10.1351 128.365 11.2306 127.932 12.4703C127.529 13.7099 127.327 15.0216 127.327 16.4054C127.327 17.8757 127.543 19.2306 127.976 20.4703C128.437 21.7099 129.071 22.791 129.878 23.7135C130.714 24.636 131.68 25.3711 132.776 25.9189C133.871 26.4378 135.082 26.6973 136.408 26.6973C137.965 26.6973 139.449 26.2937 140.862 25.4865C142.303 24.6792 143.644 23.4973 144.884 21.9405V27.8216C142.318 30.5892 139.32 31.973 135.889 31.973ZM144.451 20.3405H138.268V15.973H149.381V31.7567H144.451V20.3405Z" fill="#235CF0"/>
</g>
<defs>
<clipPath id="clip0_1_46">
<rect width="150" height="32.4324" fill="white"/>
</clipPath>
</defs>
</svg>
